<?xml version="1.0" encoding="utf-8"?>
<!-- Generator: Adobe Illustrator 22.1.0, SVG Export Plug-In . SVG Version: 6.00 Build 0)  -->
<svg version="1.1" id="Layer_1" xmlns="http://www.w3.org/2000/svg" xmlns:xlink="http://www.w3.org/1999/xlink" x="0px" y="0px"
	 viewBox="0 0 401.8 176.7" style="enable-background:new 0 0 401.8 176.7;" xml:space="preserve">
<style type="text/css">
	.st0{opacity:0.5;fill:#648B2E;}
	.st1{fill:#648B2E;}
</style>
<path class="st0" d="M88.7,130.7c1,3.6,10.3,40.9,67,45.5c-3.9-7.5-8.5-16.8-9.9-21.8c-0.8-2.9-4.8-17.2-2.2-14
	c2.8,3.5,3.5,15.2,12.7,28.9c2.1,3.1,3.8,5.5,5.3,7.3c1.8,0.1,3.6,0.1,5.4,0.1c1.4,0,2.9-0.1,4.6-0.2c0,0-23.7-24.7-19.8-32.4
	c0.6-1.1,31.8,30.8,31.8,30.8c0.7-0.1,1.3-0.2,2-0.4c7.7-1.7,15.9-4.8,23.8-7.2c0-0.2-0.1-0.3-0.2-0.5
	c-7.6-12.8-34.2-31.6-29.5-39.7c0.8-1.4,27.1,34.9,39.1,37.4c0.1,0,0.2,0.1,0.3,0.1c5.6-1.6,14.3-4,22.5-6.3
	c5.7-1.6,11.1-3.1,15.1-4.2c0.1-0.3,0.1-0.7-0.1-0.9c-2.7-2.6-32-28.2-24.4-38.4c0,0,14.8,31,34.1,36.3c1.3-0.5,2.8-1,4.4-1.6
	c-11.7-11.9-24.8-26.3-21.1-25.2l23.5,24.4c11-3.9,25.7-9,32-11.1c0.3-0.5-32.5-22.6-27.5-23.6c12-2.6,29.1,19.6,37.7,19.7
	c12.2-7.6,28.1-17.6,39.6-24.7c0,0-33.1-10-39.6-18.8c-0.5-0.7,42.7,16.8,42.7,16.8c3.1-1.9,5.7-3.5,7.7-4.8c0.3-0.5,0.3-0.9,0-1.1
	c-12.6-10.4-44.6-14.6-37.1-20.5c1.9-1.5,34.3,18.5,48.3,12.5c13.9-6,32.5-81.4,21.4-73.1c-12.9,9.6-58.3-10.8-62.5-6.6
	c-4.2,4.1-10.1,35.8-12.1,36.9c-5.6,3.1,7-32.2,3.5-39c-2.6,0.5-5.1,0.9-10.2,1.8c-2,7.5-10.9,34.8-11.8,34
	c-2.4-2.1,5.6-26.5,7.9-33.4c-10.2,1.7-22.6,3.8-29.7,5c-12.5,4.1-15.7,48-17.3,48.5c-10.8,3.3-2-33.2,3.6-42.4
	c0.1-0.1,0.1-0.3,0.1-0.4c-6.4,1.4-16.9,3.6-26.9,5.8c0,0-5,40.9-6.1,40.3c-3.4-2.1,2.2-25.6,4.1-39.9c-9.2,2-17.8,3.8-22.3,4.7
	c-12,10.1-12,34.3-13.9,35.7c-2.5,1.8-1.8-20.2,2.1-31.8c0,0.8,0.2,0,0.1-0.2c0,0,0,0,0,0c0.1,0,0,0,0,0c0.5-1.5,1.1-2.8,1.7-3.9
	c-9.3,1.2-30.1,3.8-36.4,4.6c-0.3,0.3-0.5,0.6-0.7,0.8c-5.1,10.6,3.3,35.3-4.9,41.7c-2.6,2-3-38.8-4.3-39.5
	c-2.5,0.7-4.5,1.6-7.8,2.6c0.6,8.3,1.2,32.2,0.8,32.3c-5.4,1.2-2.7-25-3.3-31.8c-6.6,1.9-14.3,4.3-21.9,7.2c-0.5,3.2-1,7.1-1.1,11.2
	c-0.1,9.6,9.2,27.7,6.8,30.4c-2.2,2.6-11.2-22-16.8-36.8c-2.9,1.4-5.6,2.9-8,4.5c-19.8,13-28.3,31.5-25.1,55.7
	c-2.2,0.4-4.4,0.8-6.5,1.3c-5.4,1-10.2,2.1-15.1,3.1c-4.8,1-9.4,2-13.8,2.9c-4.4,1.1-8.5,2.2-12.4,3.2c-7.8,2-14.6,3.7-20.1,5.4
	c-11.1,3.1-17.4,5-17.4,5l1.7,5.4c0,0,6.2-1.9,17.2-5c5.5-1.6,12.2-3.4,19.9-5.3c3.8-1,7.9-2,12.2-3.1c4.4-0.9,9-1.9,13.8-2.9
	c4.8-1,9.9-2.2,14.9-3.1c2.1-0.4,4.3-0.8,6.4-1.2C87.6,126,88.1,128.3,88.7,130.7z"/>
<g>
	<g>
		<path class="st1" d="M276.4,105.2c5-1.1,10.1,1.7,14.2,4.2c4.8,2.9,9.2,6.5,13.8,9.6c1.8,1.3,3.7,2.5,5.8,3.4
			c1.2,0.6,3.1,1.5,4.5,1.2c1.1-0.2,2.2-1.4,3.1-2c1.7-1.1,3.4-2.3,5-3.4c3.2-2.1,6.4-4.3,9.5-6.4c7.1-4.8,14.1-9.5,21.2-14.3
			c0.3-0.2,0.3-0.8-0.1-0.9c-6-1.6-12-3.5-17.8-5.6c-4.7-1.7-9.4-3.5-13.8-5.8c-1.8-0.9-3.6-1.9-5.3-3.2c-0.8-0.5-1.5-1.1-2.1-1.8
			c-0.1-0.1-0.5-0.7-0.7-0.7c-0.2,0-0.5,0.6-0.5,0.6c0.2,0.2,1.6,0.5,1.9,0.6c1.2,0.4,2.4,0.8,3.5,1.2c3.5,1.2,7,2.5,10.5,3.7
			c7.3,2.6,14.7,5.3,22,8c1.4,0.5,3.5,1.7,5,1.8c1.5,0.1,4.1-2.4,5.3-3.2c1.1-0.8,4-1.8,2.8-3.6c-0.9-1.4-3.7-2.5-5.2-3.3
			c-2.1-1.1-4.2-2-6.4-2.8c-4.7-1.9-9.6-3.3-14.4-4.9c-3.7-1.2-7.8-2.2-11.1-4.3c-0.8-0.5-2-1.3-1.6-2.4c0.3-1,1-0.9,1.9-0.7
			c3,0.8,5.9,2.2,8.7,3.4c4.3,1.8,8.7,3.5,13.2,5c7.4,2.5,17.6,5.9,25.2,2.5c4.6-2,7.2-7.8,9.2-12c6.8-14.6,10.9-31.1,13.1-47
			c0.4-3,0.8-6.1,0.8-9.2c0-1.8,0.1-3.9-0.6-5.7c-0.4-1-1.1-1.8-2.2-1.6c-0.7,0.1-1.2,0.6-1.8,1c-1.4,0.9-2.9,1.6-4.6,1.9
			c-8.5,2-18.1-0.1-26.5-1.8C353.6,5,345.4,2.6,337,1.4c-1.7-0.2-4.3-0.8-5.9,0.1c-1.8,0.9-2.5,3.9-3.1,5.7
			c-2.8,8.4-4.2,17.2-6.3,25.8c-0.2,0.7-1.2,6.5-2.3,6.3c-1.1-0.2,0-6.3,0.1-6.9c1.2-8.2,3.2-16.3,3.8-24.6c0.2-2.4,0.4-5.3-0.7-7.6
			C322.5,0,322.3,0,322.1,0c-3.4,0.7-6.8,1.4-10.1,2.1c-0.2,0-0.3,0.2-0.3,0.3c-2.2,9.6-5.1,19.1-8.1,28.4c-0.5,1.7-1.2,3.3-1.8,5
			c-0.1,0.2-0.2,0.4-0.3,0.6c-0.1,0.6,0.3,0,0.3,0.2c0-0.7-0.3-1.3-0.3-2c0-5,1.6-10.1,2.8-15c1.3-5.4,2.9-10.8,4.4-16.1
			c0.1-0.4-0.3-0.7-0.6-0.6c-7.7,1.6-15.3,3.1-23,4.7c-4.1,0.8-7.8,1-10.5,4.3c-5.2,6.2-6.8,15.6-8.2,23.3
			c-0.8,4.4-1.5,8.8-2.1,13.2c-0.4,2.8-0.6,5.8-1.3,8.6c-0.6,2.6-3.4,0.4-4-1.2c-1.4-3.5-1-7.9-0.6-11.5c0.5-5.6,1.6-11.1,3-16.5
			c0.6-2.4,1.3-4.7,2.1-7c0.6-1.7,1.9-3.5,2.2-5.3c0.1-0.4-0.2-0.7-0.6-0.6c-8.9,2.3-17.8,4.5-26.7,6.7c-0.2,0.1-0.3,0.3-0.4,0.5
			c-0.8,8.6-1.6,17.2-2.5,25.8c-0.5,4.4-0.7,9-1.7,13.3c-0.1,0.3-0.1,0.7-0.3,1c0.5-0.7,0.2-0.1,0-1.1c-0.1-0.6-0.3-1.1-0.3-1.7
			c-0.3-3.1,0.1-6.3,0.4-9.4c0.9-9.2,2.6-18.3,3.5-27.5c0-0.3-0.3-0.6-0.6-0.5c-4.8,1.2-9.6,2.4-14.4,3.6c-2.7,0.7-6.8,0.8-8.8,2.8
			c-4.4,4.5-6.8,10.6-8.3,16.6c-1.3,5.3-1.9,10.7-2.8,16c-0.1,0.6-0.1,1.5-0.4,2c-0.3,0.6-0.1,0.7-0.5,0c-1-2-0.7-5.1-0.7-7.2
			c-0.1-7.8,0.5-16,2.8-23.5c-0.3,0-0.7-0.1-1-0.1c0,0.1,0,0.2,0,0.3c0,0.4,0.5,0.7,0.9,0.4c0.2-0.3,0.1-0.4,0.2-0.7
			c0.4-1.1,0.8-2.6,1.5-3.8c0.2-0.4-0.1-0.8-0.6-0.7c-10.9,1.8-21.8,3.6-32.7,5.3c-1.6,0.3-3.6,0.1-4.4,1.7
			c-0.9,1.7-1.2,3.9-1.3,5.7c-0.5,5.4,0.2,10.9,0.7,16.4c0.4,5,1.2,10.6-0.2,15.5c-0.3,1-0.7,1.9-1.2,2.8c-0.2,0.3-0.7,1.2-1.1,1.2
			c-0.3,0.1,0.3,0.3,0,0c-0.5-0.6-0.6-2.1-0.8-2.8c-1.5-7.9-1.9-16.1-2.6-24.2c-0.3-3.4-0.5-6.9-1.1-10.3c-0.1-0.5-0.1-1.6-0.6-1.9
			c-0.7-0.4-1.8,0.3-2.4,0.6c-1.9,0.7-3.8,1.5-5.8,2.1c-0.2,0.1-0.4,0.3-0.4,0.5c1,9.6,1.6,19.3,1.9,28.9c0,0.5,0.1,3,0.1,3
			c-0.9,0.3-1.8-2.7-2-3.3c-1.1-4.5-1.1-9.4-1.2-14.1c-0.1-4.6,0.2-9.4-0.4-14c0-0.3-0.3-0.6-0.6-0.5c-4.9,1.6-9.7,3.3-14.5,5.1
			c-2.1,0.8-4.3,1.6-6.4,2.6c-1.6,0.7-1.3,1.8-1.5,3.6c-0.4,3.9-0.7,8,0,11.9c0.6,3.3,1.7,6.6,2.8,9.8c1.2,3.3,2.5,6.5,3.6,9.8
			c0.4,1.1,2.3,5.6,1.3,6.6c-0.9,0.9-6.5-10.6-7-11.6c-3.7-8-7-16.1-10.3-24.2c-0.1-0.3-0.4-0.5-0.7-0.3
			C104.4,60,94.2,68.8,88.5,80.5c-5.3,11-6,23.3-4.1,35.2c0.1-0.2,0.2-0.4,0.3-0.6c-28.5,6.6-56.8,14.2-84.5,23.8
			c-0.2,0.1-0.4,0.3-0.3,0.6c0.6,1.8,1.2,3.6,1.9,5.3c0.1,0.2,0.3,0.4,0.6,0.3c27.4-9.6,55.4-17.3,83.7-23.6
			c-0.2-0.1-0.4-0.2-0.6-0.3c1.8,7.7,4.4,14.8,9,21.4c7.2,10.4,17.7,17.9,29.4,22.5c10.4,4.1,21.4,5.9,32.5,6.4
			c0.4,0,0.6-0.4,0.4-0.8c-5.8-10.2-11-20.4-13.6-31.9c-0.2-0.9-0.4-1.7-0.5-2.6c0-0.4,0.1-0.6-0.1-0.6c-0.1,0,0.5,0.9,0.6,1
			c1.1,1.8,1.7,3.9,2.4,5.9c2.3,6.5,4.8,12.8,8.5,18.5c2.2,3.4,4.6,6.7,7.2,9.7c1.1,1.3,2.4,0.9,4.1,0.8c2.3,0,4.6-0.2,6.9-0.4
			c0.4,0,0.7-0.5,0.4-0.9c-4.1-4-8-8.3-11.7-12.7c-2.8-3.4-5.5-6.9-7.5-10.7c-0.8-1.5-1.5-3.1-1.8-4.7c-0.1-0.7,0-1.4-0.1-2.1
			c0-0.2,0.1-0.6,0.2-0.8c-0.1,0.1-0.6,0-0.2,0.2c1.8,0.8,3.5,2.8,5,4.1c2.8,2.5,5.6,5,8.4,7.6c5.5,5,10.9,10.1,16.3,15.3
			c1.2,1.1,2.1,2.8,3.8,2.5c8.5-1.5,16.7-5.5,24.9-8.3c0.2-0.1,0.4-0.3,0.3-0.6c-0.6-1.8-2.3-3.5-3.5-4.9c-1.7-2-3.6-3.9-5.4-5.8
			c-4-3.9-8.2-7.7-12.2-11.6c-3.4-3.3-7.1-6.8-9.3-11c-0.8-1.4-1.4-3.1-1-4.8c0.1-0.5-0.4-0.5,0.1-0.3c0.3,0.1,0.6,0.6,0.8,0.8
			c5.5,5.4,10.4,11.4,15.8,17c5.8,6.1,12.2,13,19.8,16.8c1.1,0.6,2.8,1.4,4.1,1.3c1.6-0.1,3.4-1.1,4.9-1.6c2.1-0.7,4.1-1.3,6.2-2
			c8.7-2.8,17.4-5.5,26.1-8.2c0.2-0.1,0.3-0.3,0.4-0.5c0.2-1.9-3.7-4.2-4.9-5.3c-3.5-3.1-7-6.4-10.2-9.8c-3.5-3.7-6.9-7.6-9.4-12
			c-1.8-3.2-3.8-7.6-1.5-11.1c-0.3,0-0.6,0-0.9,0c3.3,6.4,7.5,12.4,12.1,17.9c3.7,4.5,7.9,8.8,12.7,12.2c2.2,1.6,4.6,3,7.2,4
			c1.1,0.4,2.5,1.2,3.7,1.2c1.4,0,3.3-1.2,4.6-1.7c0.3-0.1,0.5-0.6,0.2-0.8c-5.8-5.5-11.5-11.1-16.9-16.9c-1.7-1.9-3.7-3.8-5-6
			c-0.5-0.8-0.9-1.3-0.2-0.3c2.1,2.6,5,4.9,7.4,7.2c3.4,3.3,6.8,6.6,10.2,9.9c2.1,2,4.1,4,6.2,6c0.1,0.1,0.3,0.2,0.5,0.1
			c10.5-4.1,21-8.2,31.5-12.2c0.2-0.1,0.4-0.2,0.4-0.5c0-1.1-3.2-2.6-3.9-3.1c-3.2-2.2-6.5-4.4-9.7-6.6c-3.5-2.5-7.1-4.9-10.5-7.6
			C280.5,109.6,275.8,105.4,276.4,105.2c0.6-0.2,0.4-1.2-0.3-1c-2.2,0.7,0.4,3.2,1.2,3.9c3.2,3.1,6.9,5.6,10.5,8.2
			c4,2.8,8.1,5.6,12.1,8.3c1.2,0.8,2.4,1.8,3.6,2.5c1.1,0.6,0,0,0.4-0.1c-1.5,0.3-3.1,1.2-4.5,1.8c-7.9,3.1-15.8,6.1-23.8,9.2
			c-0.8,0.3-2.1,1.2-2.6,1c-0.4-0.1-0.8-0.8-1-1c-1.4-1.3-2.8-2.7-4.1-4c-3.8-3.7-7.6-7.3-11.4-11c-1.7-1.6-3.3-3.2-5-4.8
			c-0.8-0.7-1.6-1.9-2.5-2.4c-0.6-0.4-1.3-0.5-1.6,0.3c-0.4,1.2,1.9,3.4,2.5,4.1c6.2,7.4,13.3,14,20.2,20.6c0.1-0.3,0.1-0.6,0.2-0.8
			c-1.6,0.6-3.4,1.8-5.2,1.4c-1.4-0.3-2.8-1-4.1-1.5c-2.6-1.2-5-2.8-7.3-4.6c-4.3-3.4-8.1-7.5-11.6-11.8c-4.1-5.2-7.9-10.7-11-16.6
			c-0.2-0.3-0.7-0.3-0.9,0c-2.7,4.2-0.2,9.4,2.1,13.1c3.5,5.8,8.3,10.8,13.1,15.5c2.1,2.1,4.3,4.1,6.5,6c0.7,0.6,1.5,1.3,2.2,1.9
			c0.3,0.3,1.6,1,1.6,1.4c0.2,1-13.1,4.6-14.8,5.1c-5.6,1.8-11.3,3.6-16.9,5.3c-1.8,0.6-3.9,1.7-5.8,1.3c-1.1-0.2-2.3-0.8-3.3-1.4
			c-2.7-1.5-5.1-3.4-7.5-5.4c-5.5-4.7-10.5-9.9-15.4-15.2c-3.8-4-7.3-8.3-11.2-12.2c-0.4-0.4-1.4-1.8-2.2-1.7
			c-1.3,0.1-1.2,2.6-1.1,3.4c0.4,2.7,2.2,5.2,3.9,7.3c2.6,3.3,5.7,6.3,8.7,9.2c3.4,3.2,6.8,6.4,10.1,9.7c1.5,1.5,3.1,3.1,4.5,4.7
			c1.4,1.6,3.4,3.5,4.2,5.5c0.1-0.2,0.2-0.4,0.3-0.6c-7.8,2.7-15.5,6-23.5,8c-1.6,0.4-1.2,0.8-2.2-0.1c-0.8-0.7-1.5-1.5-2.3-2.2
			c-5.9-5.6-11.8-11.1-17.8-16.6c-2.7-2.5-5.5-5-8.3-7.4c-0.7-0.6-2.9-3-4-3c-1.9,0.1-0.7,4.5-0.4,5.5c1.3,3.9,3.8,7.3,6.2,10.6
			c4.4,5.9,9.4,11.4,14.7,16.5c0.1-0.3,0.2-0.6,0.4-0.9c-2,0.2-4,0.3-6,0.4c-1,0-2.7,0.3-3.6-0.1c-0.9-0.4-1.5-1.4-2.2-2.2
			c-3-3.7-5.7-7.7-8-11.9c-3.2-5.9-4.9-12.3-7.6-18.5c-0.3-0.8-1.2-3.1-2.3-3.2c-1-0.1-1,0.8-1,1.6c0.2,4.3,2.1,8.8,3.3,12.8
			c2.5,7.8,6.9,15.1,10.9,22.2c0.1-0.3,0.3-0.5,0.4-0.8c-17.2-0.8-34.8-5-48.7-15.6c-7.5-5.8-13.7-13.3-17.5-22
			c-1.7-3.8-2.8-7.9-3.7-12c-0.1-0.3-0.4-0.4-0.6-0.3c-28.3,6.3-56.3,14-83.7,23.6c0.2,0.1,0.4,0.2,0.6,0.3
			c-0.6-1.8-1.2-3.6-1.9-5.3c-0.1,0.2-0.2,0.4-0.3,0.6c27.6-9.7,55.9-17.3,84.5-23.8c0.3-0.1,0.4-0.4,0.3-0.6
			c-1.9-11.8-1.2-24.2,4.3-35c5.7-11.3,15.5-19.7,26.5-25.7c-0.2-0.1-0.5-0.2-0.7-0.3c3.1,7.5,6.2,15,9.5,22.3
			c1.5,3.2,2.9,6.5,4.7,9.6c0.8,1.4,1.7,3.6,3.1,4.5c3.4,2.2,1.3-5.7,1.1-6.6c-2.2-7-5.6-13.8-6.9-21.1c-0.4-2.5-0.4-5-0.2-7.5
			c0.1-1.4,0.2-2.9,0.3-4.3c0-0.2,0-1.3,0.2-1.6c0.5-0.9,2.3-1.4,3.3-1.8c5.9-2.4,12-4.5,18.1-6.5c-0.2-0.2-0.4-0.3-0.6-0.5
			c0.8,6.8,0.2,13.8,0.6,20.7c0.1,1.5,0.5,12.9,4.3,11.5c1.1-0.4,0.6-2.7,0.6-3.7c-0.1-3.6-0.3-7.2-0.6-10.8
			c-0.3-4.2-0.5-8.4-0.9-12.5c-0.1-1.3-0.8-3.8-0.4-5c0.2-0.8,1.8-1,2.7-1.4c1-0.4,2.9-1.6,3.9-1.5c0.7,0.1-0.2-0.6,0.3,0
			c0.1,0.2,0.1,0.6,0.2,0.8c0.2,1.1,0.3,2.2,0.4,3.2c0.3,2.9,0.6,5.9,0.9,8.8c0.6,6.6,1.1,13.2,2,19.8c0.2,1.4,0.7,8.3,3.3,5.6
			c2.1-2.1,2.6-5.4,2.9-8.3c0.3-4.1-0.1-8.3-0.5-12.5c-0.5-5-1.1-10.1-0.6-15.1c0.1-1.7,0.4-5.4,2.2-6.2c1.5-0.6,3.8-0.6,5.4-0.9
			c10.1-1.6,20.1-3.2,30.2-4.9c-0.2-0.2-0.4-0.5-0.6-0.7c-0.5,1-1,2.1-1.4,3.2c0,0-0.3,1.3-0.2,1.2c0.3,0.1,0.6,0.2,0.9,0.4
			c0-0.1,0-0.2,0-0.3c-0.1-0.5-0.8-0.7-1-0.1c-2.1,7.2-2.8,14.9-2.8,22.3c0,1.2-0.5,10.6,2.1,10.2c1-0.1,1.2-1.7,1.3-2.5
			c0.5-2.3,0.7-4.7,1-7.1c1-7,2.4-14.2,5.9-20.4c1-1.9,2.2-3.6,3.7-5.2c1.4-1.6,3.6-1.7,5.5-2.2c5.9-1.5,11.7-2.9,17.6-4.4
			c-0.2-0.2-0.4-0.3-0.6-0.5c-1.1,10.4-3.1,20.6-3.8,31c-0.2,2.4-0.8,6.5,0.7,8.7c0.7,1.1,1.3,0.8,1.7-0.2c0.7-1.9,0.7-4.3,1-6.3
			c0.4-3.4,0.8-6.8,1.2-10.3c0.7-6.8,1.3-13.5,2-20.3c0.1-0.6-0.1-2.1,0.2-2.6c0.1-0.1,0-0.4,0-0.5c-0.2,0.2,1.7,0,1.9-0.1
			c1.1-0.3,2.1-0.5,3.2-0.8c7.1-1.8,14.2-3.5,21.3-5.3c-0.2-0.2-0.4-0.4-0.6-0.6c-0.3,1.6-1.5,3.3-2,4.9c-0.8,2.1-1.4,4.2-2,6.4
			c-1.3,4.9-2.4,9.9-3,14.9c-0.5,3.7-2.7,17.1,3.7,17.6c2.2,0.2,2.5-1,2.8-2.9c0.6-3.4,1-6.8,1.4-10.2c1.3-9.5,2.7-19.6,6.7-28.4
			c0.9-1.9,1.9-3.9,3.3-5.5c1.7-1.9,3.5-2.4,5.9-2.9c8.9-1.8,17.9-3.6,26.8-5.5c-0.2-0.2-0.4-0.4-0.6-0.6c-2.7,9.1-5.6,18.5-6.9,28
			c-0.1,0.9-1.1,6.1,0.7,6.3c1.3,0.1,2.3-4.4,2.6-5.2c3-9,5.7-18.2,8-27.4c0.1-0.4,0.1-0.8,0.3-1.2c0.3-0.7,0.1-0.5,0.8-0.9
			c1.5-0.7,3.5-0.7,5.1-1.1c0.7-0.1,3.1-1.1,3.7-0.8c0.2,0.1,0.4,1,0.5,1.6c0.6,3.9-0.2,8.1-0.8,11.9c-0.7,4.7-1.6,9.4-2.4,14.1
			c-0.5,3.1-1.4,6.5-1,9.6c0.1,1.2,0.9,2.8,2.3,1.7c1.6-1.2,1.9-5,2.3-6.7c2.2-9.1,3.5-18.6,6.8-27.3c1-2.8,1.7-4,4.8-3.8
			c3.6,0.2,7.3,1.1,10.8,1.9c9.7,2.2,19.5,4.7,29.4,5.8c4.2,0.5,8.6,0.7,12.8,0c1.6-0.3,3.2-0.7,4.7-1.5c0.8-0.4,1.9-1.7,2.8-1.7
			c5.3-0.4-2.8,34.7-3.5,37.6c-2.3,8.6-5,17.3-8.8,25.4c-1.4,2.9-2.9,5.8-5.1,8.2c-2.2,2.5-5.1,3.4-8.5,3.6
			c-10.2,0.6-20.7-3.9-30-7.6c-3.5-1.4-7-3-10.6-4.2c-1.6-0.5-3.2-0.7-3.8,1.2c-0.7,2.1,2,3.5,3.5,4.2c4,1.9,8.4,3.1,12.6,4.4
			c5.4,1.7,10.8,3.4,15.9,5.8c1.2,0.5,2.3,1.1,3.4,1.7c0.8,0.4,2.6,1.1,3,1.9c0.7,1.3-2.5,2.8-3.4,3.4c-0.7,0.5-2.5,2.2-3.2,2.2
			c-0.5,0-1.4-0.5-1.9-0.7c-1.3-0.5-2.5-0.9-3.8-1.4c-3.8-1.4-7.5-2.7-11.3-4.1c-7.6-2.8-15.3-5.6-23-8.2c-0.6-0.2-3.1-1.5-3.8-0.9
			c-0.1,0.1-0.2,0.3-0.1,0.5c0.5,1.1,1.9,2.1,2.9,2.8c1.6,1.2,3.3,2.2,5.1,3.2c4.4,2.3,9,4.2,13.7,5.9c6.2,2.3,12.5,4.3,18.9,6
			c0-0.3-0.1-0.6-0.1-0.9c-12.5,8.4-24.8,17.1-37.4,25.2c-1.2,0.7-1.7,0.8-3,0.5c-1-0.3-2-0.7-2.9-1.2c-2.2-1.1-4.2-2.5-6.2-3.9
			c-4.5-3.2-8.9-6.6-13.7-9.4c-4.1-2.4-8.9-4.6-13.7-3.5C275.5,104.4,275.8,105.3,276.4,105.2z"/>
	</g>
</g>
</svg>
