<?xml version="1.0" encoding="utf-8"?>
<!-- Generator: Adobe Illustrator 22.1.0, SVG Export Plug-In . SVG Version: 6.00 Build 0)  -->
<svg version="1.1" id="Ebene_1" xmlns="http://www.w3.org/2000/svg" xmlns:xlink="http://www.w3.org/1999/xlink" x="0px" y="0px"
	 viewBox="0 0 331 331" style="enable-background:new 0 0 331 331;" xml:space="preserve">
<style type="text/css">
	.st0{fill:#FFFFFF;}
</style>
<path class="st0" d="M166.4,331L166.4,331C75,331,0.9,256.9,0.9,165.5v0C0.9,74.1,75,0,166.4,0h0c91.4,0,165.5,74.1,165.5,165.5v0
	C331.9,256.9,257.8,331,166.4,331z"/>
<g>
	<path d="M98.2,109.1c-7.6-0.4-13.6,5.3-16.2,11.9c-0.5,1.2-0.7,2.4-0.8,3.8c-0.6-0.3-1.2-0.6-1.9-0.8c-6.7-2.6-15.3,0.8-19.1,6.6
		c-4.7,7.2-3,17.7-3,26c0,6.4,10,6.4,10,0c0-5.2,0-10.5,0-15.7c0-9.3,13.4-10.1,13.9-0.7c0,5.5,0,10.9,0,16.4c0,3.2,2.5,4.8,5,4.8
		c2.5,0,5-1.6,5-4.8c0-6.7,0-13.4,0-20.1c0,0,0,0,0,0c0-3.2,0-6.5,0-9.7c0.5-4,2.1-7.3,7-7.6c8.9-0.5,7,11.9,7,17.3
		c0,6.7,0,13.4,0,20.1c0,6.4,10,6.4,10,0c0-8.4,0-16.8,0-25.2c0-3.5,0.1-6.8-0.8-10.3C112.4,113.7,105.4,109.4,98.2,109.1z"/>
	<path d="M134.6,92.3c-8.7,1.4-14.3,8.9-14.3,17.6c0,11.5,0,23,0,34.5c0,10.3,9.5,18.4,19.6,16.7c8.7-1.4,14.3-8.9,14.3-17.6
		c0-11.5,0-23,0-34.5C154.7,98.8,144.4,90.7,134.6,92.3z M144.2,144.4c0,9-14.4,9-13.9,0c0.4-9,0-18.1,0-27.1c0-2.8,0-5.5,0-8.3
		c0-9,14.4-9,13.9,0c0,0.2,0,0.4,0,0.6c0,8.8,0,17.7,0,26.5C144.2,138.9,144.2,141.7,144.2,144.4z"/>
	<path d="M133.6,169.3c-8.7,1.4-14.3,8.9-14.3,17.6c0,11.5,0,23,0,34.5c0,10.3,9.5,18.4,19.6,16.7c8.7-1.4,14.3-8.9,14.3-17.6
		c0-11.5,0-23,0-34.5C153.7,175.7,143.4,167.7,133.6,169.3z M143.2,221.4c0,9-14.4,9-13.9,0c0.4-9,0-18.1,0-27.1c0-2.8,0-5.5,0-8.3
		c0-9,14.4-9,13.9,0c0,0.2,0,0.4,0,0.6c0,8.8,0,17.7,0,26.5C143.2,215.9,143.2,218.6,143.2,221.4z"/>
	<path d="M193.2,204.7c0-9.8,0-19.6,0-29.3c0-6.4-10-6.4-10,0c0,5.1,0,10.2,0,15.3c-3-1.4-6.3-1.9-9.6-1.4
		c-8.7,1.4-14.3,8.9-14.3,17.6c0,11.5,0,23,0,34.5c0,10.3,9.5,18.4,19.6,16.7c8.7-1.4,14.3-8.9,14.3-17.6c0-8.6,0-17.2,0-25.8
		c0,0,0,0,0,0c0-2.9,0-5.8,0-8.8C193.2,205.5,193.2,205.1,193.2,204.7z M183.2,241.4c0,9-14.4,9-13.9,0c0.4-9,0-18.1,0-27.1
		c0-2.8,0-5.5,0-8.3c0-9,14.4-9,13.9,0c0,0.2,0,0.4,0,0.6c0,8.8,0,17.7,0,26.5C183.2,235.9,183.2,238.6,183.2,241.4z"/>
	<path d="M194.2,89c0.8-16.1-20.7-22.3-30.2-10.6c-5.6,6.9-3.8,17.7-3.8,26c0,12.9,13.6,19.9,23.9,15.4c0,5.6,0,11.1,0,16.7
		c0,5.1,1.4,12.8-4.5,15.2c-10.8,4.2-9.4-11.2-9.4-16.9c0-6.4-10-6.4-10,0c0,3.4,0.2,6.9,0,10.4c-0.4,7.6,5.3,13.6,11.9,16.2
		c11.9,4.7,22.1-6.7,22.1-17.7c0-12.8,0-25.7,0-38.5C194.8,99.7,194.2,93.9,194.2,89z M170.3,104.4c0.2-5,0-10.1,0-15.1
		c0-9.2,14.4-9.4,13.9-0.3c0,0.2,0,0.4,0,0.6c0,4.8,0,9.7,0,14.5C184.2,113.4,169.8,113.6,170.3,104.4z"/>
	<path d="M114.2,187.4c0.6-12.3-13.8-20.7-24.4-15.2c-9.4,4.9-9.5,13.8-9.5,22.9c0,9.1,0.1,18.1,9.5,22.9c11,5.7,24.4-3.1,24.4-15.2
		c0-6.4-10-6.4-10,0c0,7.2-9.3,9.2-13,3.5c-1.9-2.8-1-8.1-1-11.2c0-3.5-0.7-8,1-11.2c3.2-6.1,13.3-3.3,13,3.5
		C103.9,193.8,113.9,193.8,114.2,187.4z"/>
	<path d="M200.3,109.5c0,8.6,0,17.2,0,25.8c0,3.1,0,6.1,0,9.2c0,7.9,5.4,14.2,12.8,16.5c4.1,1.3,9.4,0.5,13.6,0.5
		c4.3,0,8.9,0.4,13.2-0.2c7.5-1.2,13.8-7.6,14.3-15.4c0.2-3.9,0.1-7.8,0.1-11.7c0-6.4-10-6.4-10,0c0,6.7,1.9,17.3-7.9,17.3
		c-4.2,0-8.3,0-12.5,0c-3.5,0-7.4,0.6-10.5-1.2c-5.2-3-3-15.8-3-20.5c0-6.8,0-13.5,0-20.2c0-5.9,6.6-9.7,11.4-5.7
		c5.2,4.2,1.8,12.4-4.5,12.7c-6.4,0.3-6.4,10.3,0,10c15.2-0.8,21.7-17.5,12.4-28.9c-9.8-12-28.4-2.9-29.3,10.9c0,0.2,0,0.4,0,0.7
		C200.3,109.2,200.3,109.3,200.3,109.5C200.3,109.4,200.3,109.4,200.3,109.5C200.3,109.4,200.3,109.4,200.3,109.5z"/>
	<path d="M249.2,126.6c1.9,0.1,3.6-0.9,5.1-2.1c1.1-0.9,1.7-2.3,2-3.7c0.1-0.5,0.2-1,0.2-1.5c0-0.6-0.1-1.2-0.3-1.7
		c-0.8-3.2-3.5-5.4-7-5.6c-1.9-0.1-3.6,0.9-5.1,2.1c-1.5,1.2-2.1,3.4-2.2,5.2c-0.1,1.9,0.9,3.6,2.1,5.1
		C245.2,125.9,247.3,126.5,249.2,126.6z"/>
	<path d="M265.9,163.7c1.9,0.1,3.6-0.9,5.1-2.1c1.1-0.9,1.7-2.3,2-3.7c0.1-0.5,0.2-1,0.2-1.5c0-0.6-0.1-1.2-0.3-1.7
		c-0.8-3.2-3.5-5.4-7-5.6c-1.9-0.1-3.6,0.9-5.1,2.1c-1.5,1.2-2.1,3.4-2.2,5.2c-0.1,1.9,0.9,3.6,2.1,5.1
		C261.9,163,264,163.6,265.9,163.7z"/>
	<path d="M71.5,176c-0.8-3.2-3.5-5.4-7-5.6c-1.9-0.1-3.6,0.9-5.1,2.1c-1.5,1.2-2.1,3.4-2.2,5.2c-0.1,1.9,0.9,3.6,2.1,5.1
		c1.2,1.5,3.4,2.1,5.2,2.2c1.9,0.1,3.6-0.9,5.1-2.1c1.1-0.9,1.7-2.3,2-3.7c0.1-0.5,0.2-1,0.2-1.5C71.8,177.1,71.7,176.5,71.5,176z"
		/>
	<path d="M274.2,189.8c-2.9-6.6-9.5-8.3-16.1-8.5c-2.6-0.1-4.2-2-5.3-4.1c-0.4-0.9-0.7-3.4-0.6-2.1c-0.5-6.3-10-6.5-10,0
		c0,10.2,0,20.3,0,30.5c0,5.2,0,10.4,0,15.6c0,5.3-3.2,8.2-8.5,8.2c-5.7,0-11.4,0-17,0c-6.3,0-7.4-5.2-7.4-10.2c0-0.4,0-0.7,0-1.1
		c4.3,2.1,9.4,2.4,14.4-0.1c9.3-4.8,9.5-13.8,9.5-22.9c0-9.2-0.2-18.1-9.5-22.9c-10.9-5.7-22.6,2.5-24.3,13.6
		c-0.1,0.4-0.2,0.9-0.2,1.3c0,0.1,0,0.2,0,0.3c0,0,0,0,0,0c0,4.9,0,9.8,0,14.8c0,0.2,0,0.4,0,0.6c0,0,0,0,0,0c0,6.3,0,12.5,0,18.8
		c0,8.8,6.2,17.1,15.4,17.7c6.3,0.4,12.7,0.1,19,0.1c8.9,0,16.7-5.1,18.2-14.3c0.7-4.3,0.2-8.9,0.2-13.2c0-7.4,0-14.8,0-22.2
		c1.8,0.8,3.8,1.4,5.9,1.6c4.2,0.5,7.3,0.8,7.6,5.3c0.1,1.6,0.2,0.7-0.2,2.1c-0.6,2.2-2.8,2.6-4.8,2.7c-6.4,0.3-6.5,10.3,0,10
		C272.4,210.9,278.8,200.4,274.2,189.8z M222.3,183.8c1.8,2.8,1,8.1,1,11.2c0,3.5,0.7,8-1,11.2c-3.4,6.5-12.6,3-13-3.5
		c0-5.1,0-10.3,0-15.4C209.7,180.3,218.4,178,222.3,183.8z"/>
</g>
</svg>
