<?xml version="1.0" encoding="utf-8"?>
<!-- Generator: Adobe Illustrator 21.1.0, SVG Export Plug-In . SVG Version: 6.00 Build 0)  -->
<svg version="1.1" id="Ebene_1" xmlns="http://www.w3.org/2000/svg" xmlns:xlink="http://www.w3.org/1999/xlink" x="0px" y="0px"
	 viewBox="0 0 203 172" style="enable-background:new 0 0 203 172;" xml:space="preserve">
<style type="text/css">
	.st0{fill:#261B12;}
</style>
<g>
	<path class="st0" d="M119.9,28.9c0,3.6-2.9,6.5-6.5,6.5s-6.5-2.9-6.5-6.5V15.6c0-3.6,2.9-6.5,6.5-6.5s6.5,2.9,6.5,6.5V28.9z
		 M129.2,15.7L129.2,15.7c0-8.7-7-15.7-15.7-15.7S97.8,7,97.8,15.7v14.5c0,8.7,7,15.7,15.7,15.7c2.3,0,4.5-0.5,6.5-1.4
		c0,0,0,22.2,0,22.4c0,3.6-2.9,6.5-6.5,6.5c-3.6,0-6.5-2.9-6.5-6.5l0-14.3c0-2.2-2.2-4-4.6-4c-2.5,0-4.6,2.1-4.6,4.6v14.1
		c0,8.7,7,15.7,15.7,15.7s15.7-7,15.7-15.7L129.2,15.7z"/>
	<path class="st0" d="M83,67.1c0,3.6-2.9,6.5-6.5,6.5c-3.6,0-6.5-2.9-6.5-6.5c0-0.1,0-33,0-33c0,0,0,0,0,0c0-3.6,2.9-6.5,6.5-6.5
		c3.6,0,6.5,2.9,6.5,6.5V67.1z M92.2,33.8c0-8.7-7-15.7-15.7-15.7c-8.7,0-15.7,7-15.7,15.7v33.3c0,8.7,7,15.7,15.7,15.7
		c8.7,0,15.7-7,15.7-15.7V33.8z"/>
	<path class="st0" d="M83,139.6c0,3.6-2.9,6.5-6.5,6.5c-3.6,0-6.5-2.9-6.5-6.5c0-0.1,0-33,0-33l0,0c0-3.6,2.9-6.5,6.5-6.5
		c3.6,0,6.5,2.9,6.5,6.5V139.6z M92.2,106.3c0-8.7-7-15.7-15.7-15.7c-8.7,0-15.7,7-15.7,15.7v33.3c0,8.7,7,15.7,15.7,15.7
		c8.7,0,15.7-7,15.7-15.7V106.3z"/>
	<path class="st0" d="M55.2,49.7c0-8.7-7-15.7-15.7-15.7c-8,0-14.6,6-15.6,13.8c-2-0.9-4.3-1.5-6.6-1.5c-8.7,0-15.7,7-15.7,15.7
		v16.2c0,2.5,2.1,4.6,4.6,4.6s4.6-2.1,4.6-4.6V62h0c0.1-3.5,2.9-6.4,6.5-6.4c3.6,0,6.4,2.9,6.5,6.4h0v16.2c0,0,0,0,0,0
		c0,2.5,2.1,4.6,4.6,4.6c2.5,0,4.6-2.1,4.6-4.6V49.8c0-3.6,2.9-6.5,6.5-6.5c3.6,0,6.5,2.9,6.5,6.5v28.4c0,2.5,2.1,4.6,4.6,4.6
		c2.5,0,4.6-2.1,4.6-4.6C55.2,78.2,55.2,49.8,55.2,49.7"/>
	<path class="st0" d="M180.5,57.1L180.5,57.1c-0.1-2.4-2.1-4.4-4.5-4.4c-2.5,0-4.4,2-4.5,4.4h0V67c0,3.6-2.9,6.5-6.5,6.5h-14.4
		c-3.6,0-6.5-2.9-6.5-6.5V33.8c0-3.6,2.9-6.5,6.5-6.5c3.6,0,6.5,2.9,6.5,6.5c0,3.6-2.9,6.5-6.5,6.5c-2.5,0-4.6,2.1-4.6,4.6
		c0,2.5,2.1,4.6,4.6,4.6c8.7,0,15.7-7,15.7-15.7c0-8.7-7-15.7-15.7-15.7c-8.7,0-15.7,7-15.7,15.7V67c0,8.7,7,15.7,15.7,15.7h14.4
		l0,0c8.5-0.1,15.5-6.8,15.5-15.3V57.1z"/>
	<path class="st0" d="M120,122.7v34c-0.3,3.4-3.1,6-6.5,6c-3.6,0-6.5-2.9-6.5-6.5c0-0.1,0-33,0-33v0c0-3.6,2.9-6.5,6.5-6.5
		C116.9,116.7,119.7,119.4,120,122.7 M129.2,95.4c0-2.5-2.1-4.6-4.6-4.6c-2.5,0-4.6,2.1-4.6,4.6v13.4c-2-0.9-4.2-1.4-6.5-1.4
		c-8.7,0-15.7,7-15.7,15.7v33.3c0,8.7,7,15.7,15.7,15.7c8.7,0,15.7-7,15.7-15.7C129.2,156.2,129.2,95.4,129.2,95.4"/>
	<path class="st0" d="M55.2,106.6v-0.8c0-8.4-7.2-15-15.7-15c-8.2,0-15,6.4-15.6,14.4l0,16.2h0c0.3,8.4,7.2,15.2,15.7,15.2
		s15.7-6.7,15.7-15.1v-0.6c0-2.5-2.1-4.6-4.6-4.6c-2.5,0-4.6,2.1-4.6,4.6c0,0.2,0,0.6,0,0.6c0,3.3-3.1,5.9-6.5,5.9s-6.2-2.6-6.5-5.9
		v-15.5c0.3-3.3,3.1-5.9,6.5-5.9s6.5,2.6,6.5,5.9c0,0,0,0.4,0,0.6c0,2.5,2.1,4.6,4.6,4.6C53.1,111.1,55.2,109.1,55.2,106.6"/>
	<path class="st0" d="M144.1,119.4c0-0.1,0-12.6,0-12.6s0,0,0,0c0-3.6,2.9-6.6,6.5-6.6c3.6,0,6.5,2.9,6.5,6.5v12.6
		c0,3.6-2.9,6.5-6.5,6.5C147,125.8,144.1,123,144.1,119.4 M202.8,117.1c0-8.6-6.9-15.7-15.4-15.7c-4.5,0-7-2.7-7-6
		c0-2.3-1.9-4.6-4.4-4.6c-2.5,0-4.6,2.1-4.6,4.6c0,0,0,42.8,0,43c0,3.6-2.9,6.5-6.5,6.5l-15.3,0c-3.1,0-5.7-3.2-5.7-6.5v-4.7
		c2,0.9,4.3,1.4,6.6,1.4c8.7,0,15.7-7,15.7-15.7v-12.9c0-8.7-7-15.7-15.7-15.7c-8.7,0-15.8,7-15.8,15.7v31.9c0,8.7,7,15.7,15.7,15.7
		H165c8.5,0,15.3-6.8,15.5-15.3h0v-29.3c0,0,1.7,1.5,6.1,1.5c4,0,7.1,2.8,7.1,6.1c0,3.3-3.1,6.5-6.6,6.5c-2.9,0-4.2,2.2-4.2,4.6
		c0,2.4,1.9,4.6,4.1,4.6h0.2C195.6,132.7,202.8,125.5,202.8,117.1"/>
	<path class="st0" d="M176,49.4c3.5,0,6.3-2.8,6.3-6.3c0-3.5-2.8-6.3-6.3-6.3c-3.5,0-6.3,2.8-6.3,6.3
		C169.7,46.5,172.5,49.4,176,49.4"/>
	<path class="st0" d="M6.3,103.4c3.5,0,6.3-2.8,6.3-6.3c0-3.5-2.8-6.3-6.3-6.3c-3.5,0-6.3,2.8-6.3,6.3C0,100.6,2.8,103.4,6.3,103.4"
		/>
	<path class="st0" d="M196.7,82.8c3.5,0,6.3-2.8,6.3-6.3c0-3.5-2.8-6.3-6.3-6.3c-3.5,0-6.3,2.8-6.3,6.3
		C190.3,80,193.2,82.8,196.7,82.8"/>
</g>
</svg>
